<?xml version="1.0" encoding="utf-8"?>
<!-- Generator: Adobe Illustrator 23.0.1, SVG Export Plug-In . SVG Version: 6.00 Build 0)  -->
<svg version="1.1" id="Layer_1" xmlns="http://www.w3.org/2000/svg" xmlns:xlink="http://www.w3.org/1999/xlink" x="0px" y="0px"
	 viewBox="0 0 1350 1080" style="enable-background:new 0 0 1350 1080;" xml:space="preserve">
<style type="text/css">
	.st0{fill:#CCCC00;}
	.st1{fill:#E0FF01;}
	.st2{fill:#4D4D4D;}
</style>
<g>
	<g>
		<path class="st0" d="M321.68,431.34v79.75l188.45-102.21l8.39-4.55l45.24-24.53l145.25-78.79V78l-39.73,21.55l-105.52,57.24
			l-116.17,63.02c-70.96,38.49-117.44,109.67-124.84,189.07C322.03,416.3,321.68,423.78,321.68,431.34z"/>
		<path class="st0" d="M537.85,761.01V984l44.62-24.21l100.63-54.58l51.59-27.97l51.78-28.08c75.29-40.83,125.59-115.1,136.48-198.7
			c1.48-11.3,2.23-22.76,2.23-34.32v-65.23l-183.53,99.55l-58.56,31.77L537.85,761.01z"/>
		<polygon class="st1" points="321.08,404.36 321.08,648.39 324.16,649.11 925.19,649.11 925.19,404.36 		"/>
		<polygon class="st1" points="322.09,407.89 321.28,651.91 324.37,652.65 926.11,654.65 926.92,409.9 		"/>
	</g>
</g>
</svg>
