<?xml version="1.0" encoding="utf-8"?>
<!-- Generator: Adobe Illustrator 23.0.1, SVG Export Plug-In . SVG Version: 6.00 Build 0)  -->
<svg version="1.1" id="Layer_1" xmlns="http://www.w3.org/2000/svg" xmlns:xlink="http://www.w3.org/1999/xlink" x="0px" y="0px"
	 viewBox="0 0 1350 1080" style="enable-background:new 0 0 1350 1080;" xml:space="preserve">
<style type="text/css">
	.st0{fill:#CCCC00;}
	.st1{fill:#E0FF01;}
	.st2{fill:#4D4D4D;}
</style>
<g>
	<g>
		<g>
			<g>
				<path class="st2" d="M1071.54,500.54v33.98l80.29-43.55l3.58-1.94l19.28-10.45l61.88-33.57V350l-16.93,9.18l-44.96,24.39
					l-49.5,26.85c-30.23,16.4-50.04,46.72-53.19,80.55C1071.69,494.13,1071.54,497.32,1071.54,500.54z"/>
			</g>
			<g>
				<path class="st2" d="M1163.63,641v95l19.01-10.31l42.87-23.25l21.98-11.92l22.06-11.96c32.08-17.4,53.51-49.04,58.15-84.66
					c0.63-4.81,0.95-9.7,0.95-14.62v-27.79l-78.19,42.41l-24.95,13.53L1163.63,641z"/>
			</g>
			<g>
				<polygon points="1071.28,489.05 1071.28,593.01 1072.6,593.32 1328.66,593.32 1328.66,489.05 				"/>
			</g>
		</g>
	</g>
	<g>
		<g>
			<path d="M47.8,559.13h21.12c0.52,30.94,18.69,46.42,54.5,46.42c17.03,0,29.08-2.74,36.12-8.21s10.56-13.51,10.56-24.12
				c0-9.04-2.52-15.99-7.56-20.86c-5.04-4.86-13.04-8.25-23.99-10.17l-40.94-6.26c-14.95-2.26-26.04-7.13-33.25-14.6
				c-7.22-7.47-10.82-17.73-10.82-30.77c0-14.77,5.61-26.81,16.82-36.11c11.21-9.3,27.6-13.95,49.15-13.95
				c21.9,0,38.76,5.04,50.59,15.12c11.82,10.08,18.34,23.82,19.56,41.2h-20.86c-2.61-26.25-19.12-39.37-49.54-39.37
				c-14.78,0-25.77,2.91-32.99,8.74c-7.21,5.83-10.82,13.78-10.82,23.86c0,15.47,8.69,24.6,26.08,27.38l43.29,6.52
				c15.82,2.61,27.64,7.61,35.46,14.99c7.82,7.39,11.73,17.86,11.73,31.42c0,34.77-22.86,52.15-68.58,52.15
				c-26.43,0-45.63-5.87-57.63-17.6S47.8,577.91,47.8,559.13z"/>
			<path d="M247.01,621.97c-12.87,0-23.25-3.3-31.16-9.91c-7.91-6.6-11.86-15.91-11.86-27.9c0-21.73,13.21-34.77,39.63-39.11
				l33.12-5.48c7.13-1.21,12.17-2.95,15.12-5.21c2.95-2.26,4.43-5.82,4.43-10.69c0-15.65-10.69-23.47-32.07-23.47
				c-22.78,0-34.94,9.65-36.51,28.94h-20.6c0.35-14.08,5.39-25.16,15.12-33.25c9.73-8.08,23.47-12.13,41.2-12.13
				c17.21,0,30.16,3.61,38.85,10.82c8.69,7.22,13.04,16.91,13.04,29.07v62.58c0,11.3,0.52,22.08,1.56,32.33h-19.03
				c-1.22-13.04-1.83-23.21-1.83-30.51c-2.96,9.39-8.43,17.39-16.43,23.99C271.61,618.67,260.74,621.97,247.01,621.97z
				 M251.18,605.55c14.43,0,25.56-4.78,33.38-14.34c7.82-9.56,11.73-21.03,11.73-34.42v-11.21c-5.21,3.65-13.04,6.61-23.47,8.87
				l-21.64,4.43c-9.04,1.92-15.64,4.74-19.82,8.48c-4.17,3.74-6.26,9.09-6.26,16.04c0,7.3,2.35,12.82,7.04,16.56
				C236.84,603.68,243.19,605.55,251.18,605.55z"/>
			<path d="M336.19,618.58V436.05h20.86v182.53H336.19z"/>
			<path d="M418.6,621.97c-12.87,0-23.25-3.3-31.16-9.91c-7.91-6.6-11.86-15.91-11.86-27.9c0-21.73,13.21-34.77,39.63-39.11
				l33.12-5.48c7.13-1.21,12.17-2.95,15.12-5.21c2.95-2.26,4.43-5.82,4.43-10.69c0-15.65-10.69-23.47-32.07-23.47
				c-22.78,0-34.94,9.65-36.51,28.94h-20.6c0.35-14.08,5.39-25.16,15.12-33.25c9.73-8.08,23.47-12.13,41.2-12.13
				c17.21,0,30.16,3.61,38.85,10.82c8.69,7.22,13.04,16.91,13.04,29.07v62.58c0,11.3,0.52,22.08,1.56,32.33h-19.03
				c-1.22-13.04-1.83-23.21-1.83-30.51c-2.96,9.39-8.43,17.39-16.43,23.99C443.19,618.67,432.33,621.97,418.6,621.97z
				 M422.77,605.55c14.43,0,25.56-4.78,33.38-14.34c7.82-9.56,11.73-21.03,11.73-34.42v-11.21c-5.21,3.65-13.04,6.61-23.47,8.87
				l-21.64,4.43c-9.04,1.92-15.64,4.74-19.82,8.48c-4.17,3.74-6.26,9.09-6.26,16.04c0,7.3,2.35,12.82,7.04,16.56
				C408.43,603.68,414.77,605.55,422.77,605.55z"/>
			<path d="M687.44,488.2h20.34l-39.63,130.38h-29.73l-37.55-105.61l-37.29,105.61h-29.73l-39.9-130.38h21.9l33.64,114.73
				l41.2-114.73h21.64l41.2,114.73L687.44,488.2z"/>
			<path d="M773.23,606.85c22.95,0,36.68-9.47,41.2-28.42h19.04c-1.56,11.99-7.22,22.38-16.95,31.16
				c-9.74,8.78-24.43,13.17-44.07,13.17c-21.38,0-37.51-6.39-48.37-19.17c-10.87-12.78-16.3-29.6-16.3-50.46
				c0-20.34,5.56-36.94,16.69-49.8c11.12-12.86,27.12-19.3,47.98-19.3c19.12,0,34.11,5.96,44.98,17.86
				c10.86,11.91,16.3,27.6,16.3,47.07c0,4-0.18,7.04-0.52,9.13H728.38C729.77,590.6,744.72,606.85,773.23,606.85z M772.71,499.94
				c-26.6,0-41.2,14.17-43.81,42.5h84.49C812.35,514.11,798.79,499.94,772.71,499.94z"/>
			<path d="M907.26,606.85c22.95,0,36.68-9.47,41.2-28.42h19.04c-1.56,11.99-7.22,22.38-16.95,31.16
				c-9.74,8.78-24.43,13.17-44.07,13.17c-21.38,0-37.51-6.39-48.37-19.17c-10.87-12.78-16.3-29.6-16.3-50.46
				c0-20.34,5.56-36.94,16.69-49.8c11.12-12.86,27.12-19.3,47.98-19.3c19.12,0,34.11,5.96,44.98,17.86
				c10.86,11.91,16.3,27.6,16.3,47.07c0,4-0.18,7.04-0.52,9.13H862.41C863.8,590.6,878.75,606.85,907.26,606.85z M906.74,499.94
				c-26.6,0-41.2,14.17-43.81,42.5h84.49C946.38,514.11,932.82,499.94,906.74,499.94z"/>
		</g>
	</g>
</g>
</svg>
