<?xml version="1.0" encoding="utf-8"?>
<!-- Generator: Adobe Illustrator 23.0.1, SVG Export Plug-In . SVG Version: 6.00 Build 0)  -->
<svg version="1.1" id="Layer_1" xmlns="http://www.w3.org/2000/svg" xmlns:xlink="http://www.w3.org/1999/xlink" x="0px" y="0px"
	 viewBox="0 0 1350 1080" style="enable-background:new 0 0 1350 1080;" xml:space="preserve">
<style type="text/css">
	.st0{fill:#CCCC00;}
	.st1{fill:#E0FF01;}
	.st2{fill:#4D4D4D;}
</style>
<g>
	<g>
		<g>
			<path class="st0" d="M1048.55,455.58v32.34l76.42-41.45l3.4-1.84l18.35-9.95l58.9-31.95v-90.44l-16.11,8.74l-42.79,23.21
				l-47.11,25.56c-28.78,15.61-47.63,44.47-50.63,76.67C1048.69,449.49,1048.55,452.52,1048.55,455.58z"/>
		</g>
		<g>
			<path class="st0" d="M1136.22,589.28v90.43l18.1-9.82l40.81-22.13l20.92-11.34l21-11.39c30.53-16.56,50.93-46.68,55.35-80.58
				c0.6-4.58,0.91-9.23,0.91-13.92v-26.45l-74.43,40.37l-23.75,12.88L1136.22,589.28z"/>
		</g>
		<g>
			<polygon class="st1" points="1048.31,444.64 1048.31,543.6 1049.56,543.9 1293.3,543.9 1293.3,444.64 			"/>
		</g>
		<g>
			<polygon class="st1" points="1048.72,446.07 1048.39,545.03 1049.64,545.33 1293.67,546.14 1294,446.89 			"/>
		</g>
	</g>
</g>
<g>
	<g>
		<g>
			<path class="st1" d="M55.08,514.25h20.46c0.5,29.98,18.1,44.96,52.79,44.96c16.5,0,28.16-2.65,34.98-7.96
				c6.82-5.3,10.23-13.09,10.23-23.36c0-8.75-2.44-15.49-7.33-20.21c-4.88-4.71-12.63-8-23.24-9.85l-39.66-6.06
				c-14.48-2.19-25.22-6.9-32.21-14.15c-6.99-7.24-10.48-17.18-10.48-29.81c0-14.31,5.43-25.97,16.29-34.98
				c10.86-9.01,26.73-13.51,47.61-13.51c21.22,0,37.55,4.89,49,14.65c11.45,9.77,17.76,23.07,18.94,39.91h-20.21
				c-2.53-25.43-18.53-38.14-47.99-38.14c-14.31,0-24.97,2.82-31.95,8.46c-6.99,5.64-10.48,13.35-10.48,23.11
				c0,14.99,8.42,23.83,25.26,26.52l41.93,6.31c15.32,2.53,26.77,7.37,34.35,14.52c7.58,7.16,11.37,17.3,11.37,30.44
				c0,33.68-22.14,50.52-66.43,50.52c-25.6,0-44.2-5.68-55.82-17.05S55.08,532.44,55.08,514.25z"/>
			<path class="st1" d="M248.05,575.13c-12.46,0-22.53-3.2-30.19-9.6c-7.66-6.4-11.49-15.41-11.49-27.03
				c0-21.05,12.8-33.68,38.39-37.89l32.08-5.3c6.9-1.18,11.78-2.86,14.65-5.05c2.86-2.19,4.29-5.64,4.29-10.36
				c0-15.15-10.36-22.73-31.07-22.73c-22.06,0-33.85,9.35-35.36,28.04H209.4c0.34-13.64,5.22-24.37,14.65-32.21
				c9.43-7.83,22.73-11.75,39.91-11.75c16.67,0,29.21,3.5,37.64,10.48c8.42,6.99,12.63,16.38,12.63,28.16v60.62
				c0,10.95,0.5,21.39,1.51,31.32h-18.44c-1.18-12.63-1.77-22.48-1.77-29.55c-2.87,9.09-8.17,16.84-15.91,23.24
				C271.88,571.92,261.35,575.13,248.05,575.13z M252.09,559.21c13.98,0,24.75-4.63,32.33-13.89c7.58-9.26,11.37-20.37,11.37-33.34
				v-10.86c-5.05,3.54-12.63,6.4-22.73,8.59L252.09,514c-8.76,1.86-15.15,4.59-19.2,8.21c-4.04,3.62-6.06,8.8-6.06,15.53
				c0,7.07,2.27,12.42,6.82,16.04C238.2,557.4,244.35,559.21,252.09,559.21z"/>
			<path class="st1" d="M334.44,571.84V395.03h20.21v176.81H334.44z"/>
			<path class="st1" d="M414.26,575.13c-12.46,0-22.53-3.2-30.19-9.6c-7.66-6.4-11.49-15.41-11.49-27.03
				c0-21.05,12.8-33.68,38.39-37.89l32.08-5.3c6.9-1.18,11.78-2.86,14.65-5.05c2.86-2.19,4.29-5.64,4.29-10.36
				c0-15.15-10.36-22.73-31.07-22.73c-22.06,0-33.85,9.35-35.36,28.04h-19.95c0.34-13.64,5.22-24.37,14.65-32.21
				c9.43-7.83,22.73-11.75,39.91-11.75c16.67,0,29.21,3.5,37.64,10.48c8.42,6.99,12.63,16.38,12.63,28.16v60.62
				c0,10.95,0.5,21.39,1.51,31.32h-18.44c-1.18-12.63-1.77-22.48-1.77-29.55c-2.87,9.09-8.17,16.84-15.91,23.24
				C438.09,571.92,427.56,575.13,414.26,575.13z M418.3,559.21c13.98,0,24.75-4.63,32.33-13.89c7.58-9.26,11.37-20.37,11.37-33.34
				v-10.86c-5.05,3.54-12.63,6.4-22.73,8.59L418.3,514c-8.76,1.86-15.15,4.59-19.2,8.21c-4.04,3.62-6.06,8.8-6.06,15.53
				c0,7.07,2.27,12.42,6.82,16.04C404.41,557.4,410.55,559.21,418.3,559.21z"/>
			<path class="st1" d="M674.68,445.55h19.7l-38.39,126.3h-28.8l-36.37-102.3l-36.12,102.3h-28.8l-38.65-126.3h21.22l32.58,111.14
				l39.91-111.14h20.96l39.91,111.14L674.68,445.55z"/>
			<path class="st1" d="M757.78,560.48c22.23,0,35.53-9.18,39.91-27.53h18.44c-1.52,11.62-6.99,21.68-16.42,30.18
				c-9.43,8.51-23.66,12.76-42.69,12.76c-20.71,0-36.33-6.19-46.86-18.57c-10.53-12.38-15.79-28.67-15.79-48.88
				c0-19.7,5.39-35.78,16.17-48.24c10.77-12.46,26.27-18.69,46.48-18.69c18.52,0,33.05,5.77,43.57,17.3
				c10.52,11.54,15.79,26.74,15.79,45.59c0,3.88-0.17,6.82-0.5,8.84H714.34C715.69,544.73,730.17,560.48,757.78,560.48z
				 M757.28,456.91c-25.76,0-39.91,13.73-42.43,41.17h81.84C795.67,470.64,782.54,456.91,757.28,456.91z"/>
			<path class="st1" d="M887.62,560.48c22.23,0,35.53-9.18,39.91-27.53h18.44c-1.52,11.62-6.99,21.68-16.42,30.18
				c-9.43,8.51-23.66,12.76-42.69,12.76c-20.71,0-36.33-6.19-46.86-18.57c-10.53-12.38-15.79-28.67-15.79-48.88
				c0-19.7,5.39-35.78,16.17-48.24c10.77-12.46,26.27-18.69,46.48-18.69c18.52,0,33.05,5.77,43.57,17.3
				c10.52,11.54,15.79,26.74,15.79,45.59c0,3.88-0.17,6.82-0.5,8.84H844.17C845.52,544.73,860,560.48,887.62,560.48z M887.11,456.91
				c-25.76,0-39.91,13.73-42.43,41.17h81.84C925.51,470.64,912.37,456.91,887.11,456.91z"/>
		</g>
	</g>
</g>
</svg>
