<?xml version="1.0" encoding="utf-8"?>
<!-- Generator: Adobe Illustrator 23.0.1, SVG Export Plug-In . SVG Version: 6.00 Build 0)  -->
<svg version="1.1" id="Layer_1" xmlns="http://www.w3.org/2000/svg" xmlns:xlink="http://www.w3.org/1999/xlink" x="0px" y="0px"
	 viewBox="0 0 1350 1080" style="enable-background:new 0 0 1350 1080;" xml:space="preserve">
<style type="text/css">
	.st0{fill:#CCCC00;}
	.st1{fill:#E0FF01;}
	.st2{fill:#4D4D4D;}
</style>
<g>
	<g>
		<path d="M516.34,528.3h18.86c0.47,27.64,16.69,41.46,48.68,41.46c15.21,0,25.97-2.45,32.26-7.34c6.29-4.89,9.43-12.07,9.43-21.54
			c0-8.07-2.25-14.28-6.75-18.63c-4.51-4.35-11.64-7.37-21.43-9.08l-36.57-5.59c-13.36-2.02-23.25-6.36-29.69-13.04
			c-6.45-6.67-9.67-15.84-9.67-27.48c0-13.2,5.01-23.95,15.02-32.26c10.01-8.3,24.65-12.46,43.9-12.46
			c19.56,0,34.62,4.51,45.18,13.51c10.56,9.01,16.38,21.27,17.47,36.8h-18.63c-2.33-23.44-17.08-35.17-44.25-35.17
			c-13.2,0-23.02,2.6-29.46,7.8c-6.45,5.2-9.67,12.31-9.67,21.31c0,13.82,7.76,21.97,23.29,24.45l38.66,5.82
			c14.13,2.33,24.69,6.79,31.67,13.39c6.99,6.6,10.48,15.95,10.48,28.06c0,31.06-20.42,46.58-61.25,46.58
			c-23.6,0-40.76-5.24-51.47-15.72C521.7,558.7,516.34,545.07,516.34,528.3z"/>
		<path d="M694.27,584.43c-11.49,0-20.77-2.95-27.83-8.85c-7.07-5.9-10.6-14.21-10.6-24.92c0-19.41,11.8-31.05,35.4-34.93
			l29.58-4.89c6.36-1.09,10.87-2.64,13.51-4.66c2.64-2.02,3.96-5.2,3.96-9.55c0-13.97-9.55-20.96-28.65-20.96
			c-20.34,0-31.21,8.62-32.61,25.85h-18.4c0.31-12.58,4.81-22.47,13.51-29.69c8.69-7.22,20.96-10.83,36.8-10.83
			c15.37,0,26.94,3.22,34.7,9.67c7.76,6.44,11.64,15.1,11.64,25.97v55.89c0,10.09,0.47,19.72,1.4,28.88h-17
			c-1.09-11.64-1.63-20.73-1.63-27.25c-2.64,8.39-7.53,15.53-14.67,21.43C716.24,581.48,706.54,584.43,694.27,584.43z M698,569.76
			c12.89,0,22.82-4.27,29.81-12.81c6.99-8.54,10.48-18.78,10.48-30.74v-10.01c-4.66,3.26-11.64,5.9-20.96,7.92L698,528.07
			c-8.07,1.71-13.97,4.23-17.7,7.57c-3.73,3.34-5.59,8.12-5.59,14.32c0,6.52,2.1,11.45,6.29,14.79
			C685.19,568.09,690.86,569.76,698,569.76z"/>
		<path d="M773.92,581.4V418.38h18.63V581.4H773.92z"/>
		<path d="M847.52,584.43c-11.49,0-20.77-2.95-27.83-8.85c-7.07-5.9-10.6-14.21-10.6-24.92c0-19.41,11.8-31.05,35.4-34.93
			l29.58-4.89c6.36-1.09,10.87-2.64,13.51-4.66c2.64-2.02,3.96-5.2,3.96-9.55c0-13.97-9.55-20.96-28.65-20.96
			c-20.34,0-31.21,8.62-32.61,25.85h-18.4c0.31-12.58,4.81-22.47,13.51-29.69c8.69-7.22,20.96-10.83,36.8-10.83
			c15.37,0,26.94,3.22,34.7,9.67c7.76,6.44,11.64,15.1,11.64,25.97v55.89c0,10.09,0.47,19.72,1.4,28.88h-17
			c-1.09-11.64-1.63-20.73-1.63-27.25c-2.64,8.39-7.53,15.53-14.67,21.43C869.49,581.48,859.78,584.43,847.52,584.43z
			 M851.25,569.76c12.89,0,22.82-4.27,29.81-12.81c6.99-8.54,10.48-18.78,10.48-30.74v-10.01c-4.66,3.26-11.64,5.9-20.96,7.92
			l-19.33,3.96c-8.07,1.71-13.97,4.23-17.7,7.57c-3.73,3.34-5.59,8.12-5.59,14.32c0,6.52,2.1,11.45,6.29,14.79
			C838.44,568.09,844.1,569.76,851.25,569.76z"/>
		<path d="M1087.64,464.96h18.17l-35.4,116.45h-26.55l-33.54-94.32l-33.3,94.32h-26.55l-35.63-116.45h19.56l30.04,102.47
			l36.8-102.47h19.33l36.8,102.47L1087.64,464.96z"/>
		<path d="M1164.26,570.92c20.49,0,32.76-8.46,36.8-25.39h17c-1.4,10.71-6.45,19.99-15.14,27.83c-8.7,7.84-21.82,11.76-39.36,11.76
			c-19.1,0-33.5-5.71-43.2-17.12c-9.7-11.41-14.56-26.43-14.56-45.07c0-18.17,4.97-32.99,14.91-44.48
			c9.93-11.49,24.22-17.23,42.85-17.23c17.08,0,30.47,5.32,40.17,15.95c9.7,10.64,14.56,24.65,14.56,42.04
			c0,3.57-0.16,6.29-0.47,8.15h-93.62C1125.44,556.41,1138.79,570.92,1164.26,570.92z M1163.79,475.44
			c-23.76,0-36.8,12.66-39.13,37.96h75.46C1199.2,488.09,1187.08,475.44,1163.79,475.44z"/>
		<path d="M1283.97,570.92c20.49,0,32.76-8.46,36.8-25.39h17c-1.4,10.71-6.45,19.99-15.14,27.83c-8.7,7.84-21.82,11.76-39.36,11.76
			c-19.1,0-33.5-5.71-43.2-17.12c-9.7-11.41-14.56-26.43-14.56-45.07c0-18.17,4.97-32.99,14.91-44.48
			c9.93-11.49,24.22-17.23,42.85-17.23c17.08,0,30.47,5.32,40.17,15.95c9.7,10.64,14.56,24.65,14.56,42.04
			c0,3.57-0.16,6.29-0.47,8.15h-93.62C1245.15,556.41,1258.5,570.92,1283.97,570.92z M1283.5,475.44
			c-23.76,0-36.8,12.66-39.13,37.96h75.46C1318.9,488.09,1306.79,475.44,1283.5,475.44z"/>
	</g>
	<g>
		<g>
			<g>
				<path class="st2" d="M15.25,451.21v43.05l101.72-55.17l4.53-2.45l24.42-13.24l78.4-42.53V260.48l-21.44,11.63l-56.96,30.9
					l-62.71,34.02c-38.3,20.78-63.39,59.19-67.38,102.06C15.44,443.09,15.25,447.13,15.25,451.21z"/>
			</g>
			<g>
				<path class="st2" d="M131.93,629.15v120.36l24.09-13.07l54.32-29.46l27.85-15.1l27.95-15.16
					c40.64-22.04,67.79-62.13,73.67-107.25c0.8-6.1,1.21-12.28,1.21-18.53v-35.21l-99.06,53.74l-31.61,17.15L131.93,629.15z"/>
			</g>
			<g>
				<polygon points="14.92,436.64 14.92,568.36 16.59,568.75 341.01,568.75 341.01,436.64 				"/>
			</g>
		</g>
	</g>
</g>
</svg>
